<svg width="1200" height="600" viewBox="0 0 1200 600" fill="none" xmlns="http://www.w3.org/2000/svg">
<mask id="mask0_6_46" style="mask-type:alpha" maskUnits="userSpaceOnUse" x="0" y="0" width="1200" height="600">
<rect width="1200" height="600" fill="#7F3828"/>
</mask>
<g mask="url(#mask0_6_46)">
<rect width="1200" height="600" fill="#7F3828"/>
<path d="M1268 327.75C1190.17 403 1013.3 684.6 1042.5 819C1071.7 953.4 864.167 708 793.5 819M731.5 -58.5C798.833 42 659.219 305.596 766.5 463.5C846.5 581.25 963.667 689.75 952.5 852M686.5 -75.75C581 -19.75 387.8 143.4 459 348C530.2 552.6 273 769.25 205 852M134.5 -136.5C177.333 -24.5 247.3 239.7 184.5 400.5C121.7 561.3 -7.5 735 -7.5 794.25M1129.5 -58.5C1196.83 42 895.219 450.096 1002.5 608" stroke="#A76253" stroke-width="21"/>
</g>
</svg>
