<svg width="15" height="16" viewBox="0 0 15 16" fill="none" xmlns="http://www.w3.org/2000/svg">
<path d="M0.782487 13.3033C0.391962 13.6938 0.391962 14.327 0.782487 14.7175C1.17301 15.108 1.80618 15.108 2.1967 14.7175L0.782487 13.3033ZM14.5104 1.98959C14.5104 1.43731 14.0627 0.989591 13.5104 0.989591L4.51041 0.989591C3.95812 0.989591 3.51041 1.43731 3.51041 1.98959C3.51041 2.54188 3.95812 2.98959 4.51041 2.98959H12.5104V10.9896C12.5104 11.5419 12.9581 11.9896 13.5104 11.9896C14.0627 11.9896 14.5104 11.5419 14.5104 10.9896L14.5104 1.98959ZM2.1967 14.7175L14.2175 2.6967L12.8033 1.28248L0.782487 13.3033L2.1967 14.7175Z" fill="black"/>
</svg>
