<svg width="38" height="215" viewBox="0 0 38 215" fill="none" xmlns="http://www.w3.org/2000/svg">
<path d="M21.5 3C21.5 1.61929 20.3807 0.5 19 0.5C17.6193 0.5 16.5 1.61929 16.5 3L21.5 3ZM17.2322 213.768C18.2085 214.744 19.7914 214.744 20.7678 213.768L36.6777 197.858C37.654 196.882 37.654 195.299 36.6777 194.322C35.7014 193.346 34.1184 193.346 33.1421 194.322L19 208.464L4.85786 194.322C3.88155 193.346 2.29863 193.346 1.32232 194.322C0.346011 195.299 0.346011 196.882 1.32232 197.858L17.2322 213.768ZM16.5 3L16.5 212L21.5 212L21.5 3L16.5 3Z" fill="#7F3828"/>
</svg>
