<svg version="1.0" xmlns="http://www.w3.org/2000/svg"
 width="512.000000pt" height="512.000000pt" viewBox="0 0 512.000000 512.000000"
 preserveAspectRatio="xMidYMid meet">

<g transform="translate(0.000000,512.000000) scale(0.100000,-0.100000)"
fill="#000000" stroke="none">
<path d="M641 4653 c-109 -59 -245 -195 -330 -330 -73 -117 -129 -285 -152
-458 -22 -167 -2 -438 45 -620 10 -41 13 -82 10 -130 -8 -92 17 -277 51 -385
46 -144 137 -308 226 -405 34 -37 37 -45 42 -122 3 -44 11 -103 18 -130 17
-70 82 -205 133 -276 55 -77 181 -199 275 -265 49 -34 66 -52 56 -56 -58 -22
-451 -61 -720 -71 -88 -4 -174 -11 -192 -16 -42 -13 -90 -69 -99 -115 -10 -54
10 -105 77 -193 151 -201 396 -377 682 -490 113 -45 325 -99 479 -122 471 -70
1118 -4 1583 162 160 57 424 190 565 284 517 345 911 869 1111 1477 80 242
102 367 104 603 4 288 19 337 137 427 142 109 260 251 328 394 65 134 63 203
-5 263 -46 40 -91 47 -176 28 -38 -8 -69 -11 -69 -7 0 4 16 51 35 104 40 110
44 166 15 214 -52 85 -136 94 -268 28 -113 -56 -216 -91 -326 -111 -128 -22
-130 -22 -202 40 -201 171 -454 244 -736 215 -429 -45 -748 -251 -921 -595
-41 -82 -89 -216 -108 -298 -12 -58 -13 -59 -43 -53 -56 11 -295 85 -389 122
-442 171 -810 455 -969 747 -55 100 -84 136 -125 153 -48 21 -85 17 -142 -13z
m107 -346 c261 -404 789 -731 1447 -896 181 -45 219 -45 271 1 43 38 51 57 71
173 79 461 402 743 874 762 218 9 378 -44 516 -172 39 -36 87 -72 107 -80 77
-32 299 -11 463 44 46 15 83 26 83 25 0 -2 -13 -39 -30 -84 -16 -45 -30 -95
-30 -111 0 -70 58 -142 125 -155 19 -3 57 -1 84 6 28 6 55 10 60 8 18 -6 -106
-142 -180 -198 -105 -79 -144 -121 -178 -193 -52 -108 -62 -170 -70 -437 -8
-236 -10 -250 -44 -381 -112 -429 -366 -867 -689 -1188 -472 -471 -1035 -700
-1817 -741 -276 -14 -506 5 -739 61 -273 66 -501 182 -682 347 l-65 60 90 6
c386 29 563 51 717 90 147 38 202 62 243 108 36 39 37 42 33 104 -5 79 -30
109 -133 161 -255 129 -434 310 -481 487 -8 28 -14 90 -14 138 0 105 -9 130
-64 188 -111 116 -179 232 -222 375 -22 76 -28 118 -34 265 -5 130 -14 206
-33 295 -69 313 -35 606 94 821 33 55 154 195 167 193 4 0 31 -37 60 -82z"/>
</g>
</svg>
