<svg width="38" height="41" viewBox="0 0 38 41" fill="none" xmlns="http://www.w3.org/2000/svg">
<path d="M21.5 3C21.5 1.61929 20.3807 0.5 19 0.5C17.6193 0.5 16.5 1.61929 16.5 3L21.5 3ZM17.2322 39.7678C18.2085 40.7441 19.7915 40.7441 20.7678 39.7678L36.6777 23.8579C37.654 22.8816 37.654 21.2986 36.6777 20.3223C35.7014 19.346 34.1184 19.346 33.1421 20.3223L19 34.4645L4.85787 20.3223C3.88155 19.346 2.29864 19.346 1.32233 20.3223C0.346021 21.2986 0.346021 22.8816 1.32233 23.8579L17.2322 39.7678ZM16.5 3L16.5 38L21.5 38L21.5 3L16.5 3Z" fill="#7F3828"/>
</svg>
